<?xml version="1.0" encoding="UTF-8" standalone="no"?>
<!DOCTYPE svg PUBLIC "-//W3C//DTD SVG 1.1//EN" "http://www.w3.org/Graphics/SVG/1.1/DTD/svg11.dtd">
<svg width="5550.00" height="3270.00" viewBox="0.00 0.00 5550.00 3270.00" xmlns="http://www.w3.org/2000/svg" xmlns:xlink="http://www.w3.org/1999/xlink">
<g stroke-linecap="round" id="Layer_1_2_Copy_3">
<path d="M2977.25,749.52 C2977.18,749.28 2959.25,728.85 2952.61,721.44 C2936.47,704.24 2900.37,666.69 2880.41,646.34 C2856.62,622.84 2806.19,573.48 2778.53,547.43 C2764.53,534.86 2736.39,510.17 2722.24,498.06 C2707.93,486.39 2679.14,463.52 2664.67,452.31 C2650.04,441.55 2620.63,420.49 2605.84,410.18 C2590.89,400.33 2552.37,375.60 2546.07,371.99 C2532.17,364.22 2504.23,349.08 2490.19,341.71 C2476.00,334.71 2447.46,321.11 2433.12,314.50 C2418.63,308.28 2389.50,296.22 2374.86,290.38 C2360.08,284.93 2330.35,274.41 2315.42,269.34 C2300.33,264.66 2270.02,255.68 2254.78,251.38 C2239.42,247.44 2208.59,239.87 2193.12,236.25 C2177.54,232.95 2146.26,226.68 2130.57,223.70 C2114.77,221.05 2083.06,216.08 2067.14,213.75 C2051.12,211.75 2018.96,208.07 2002.83,206.39 C1986.59,205.04 1953.99,202.66 1937.63,201.63 C1931.88,201.39 1892.19,200.97 1876.98,200.94 C1861.66,201.21 1830.93,202.05 1815.52,202.61 C1800.00,203.47 1768.88,205.49 1753.26,206.65 C1737.55,208.10 1706.02,211.29 1690.20,213.04 C1674.29,215.08 1642.36,219.46 1626.34,221.80 C1610.23,224.43 1578.00,230.01 1561.89,232.96 C1545.91,236.25 1514.07,243.19 1498.22,246.83 C1482.50,250.81 1451.19,259.13 1435.60,263.46 C1420.14,268.13 1389.35,277.83 1374.02,282.85 C1358.83,288.22 1328.56,299.30 1313.50,305.01 C1298.56,311.07 1268.82,323.53 1254.02,329.93 C1248.70,332.29 1212.50,351.03 1198.81,358.30 C1185.22,365.89 1158.16,381.42 1144.68,389.34 C1131.31,397.60 1104.68,414.44 1091.42,423.02 C1078.27,431.94 1052.07,450.10 1039.03,459.34 C1026.10,468.92 1000.33,488.39 987.51,498.30 C974.79,508.53 949.47,529.32 936.87,539.87 C924.51,550.63 900.06,572.32 887.97,583.25 C876.17,594.35 852.83,616.72 841.30,627.99 C830.05,639.43 807.83,662.48 796.86,674.09 C786.16,685.87 765.05,709.59 754.64,721.54 C744.50,733.66 724.50,758.06 714.64,770.35 C705.06,782.80 690.14,802.36 677.44,821.23 C668.80,834.52 651.80,861.29 643.43,874.77 C635.35,888.44 619.47,915.96 611.66,929.82 C604.14,943.86 589.37,972.15 582.12,986.38 C575.16,1000.81 561.51,1029.84 554.82,1044.46 C548.42,1059.26 535.88,1089.05 529.76,1104.04 C523.91,1119.22 512.55,1149.64 507.04,1164.89 C501.88,1180.18 491.90,1210.82 487.09,1226.15 C482.62,1241.53 474.04,1272.34 469.92,1287.76 C466.16,1303.22 458.97,1334.20 455.55,1349.71 C452.48,1365.26 446.69,1396.41 443.97,1412.00 C441.59,1427.64 437.20,1458.96 435.17,1474.64 C434.51,1480.17 432.21,1521.10 431.50,1536.60 C431.12,1552.15 430.70,1583.31 430.66,1598.92 C430.95,1614.58 431.87,1645.96 432.50,1661.68 C433.46,1677.46 435.71,1709.06 437.00,1724.89 C438.63,1740.77 442.22,1772.59 444.19,1788.53 C446.48,1804.53 451.41,1836.57 454.04,1852.61 C457.00,1868.59 463.24,1900.43 466.52,1916.29 C470.12,1932.03 477.64,1963.37 481.56,1978.98 C485.81,1994.47 494.62,2025.32 499.18,2040.68 C504.07,2055.92 514.17,2086.27 519.38,2101.39 C524.91,2116.38 536.29,2146.24 542.14,2161.11 C548.32,2175.85 560.85,2205.23 567.85,2219.21 C575.03,2233.08 589.70,2260.73 597.19,2274.50 C604.99,2288.17 620.91,2315.39 629.02,2328.95 C637.44,2342.41 654.60,2369.21 663.33,2382.56 C672.38,2395.80 690.78,2422.18 700.13,2435.31 C709.80,2448.35 729.44,2474.30 739.42,2487.23 C749.71,2500.04 770.58,2525.55 781.16,2538.24 C791.92,2550.66 813.60,2575.20 824.51,2587.32 C835.59,2599.14 857.90,2622.50 869.13,2634.02 C880.52,2645.26 903.47,2667.42 915.02,2678.36 C926.73,2689.00 950.31,2709.98 962.18,2720.32 C974.20,2730.37 998.41,2750.17 1010.60,2759.92 C1022.94,2769.37 1047.76,2788.12 1061.01,2796.99 C1074.41,2805.69 1101.37,2822.79 1114.94,2831.19 C1128.68,2839.28 1156.35,2855.17 1170.28,2862.96 C1184.38,2870.45 1212.75,2885.12 1227.03,2892.31 C1241.48,2899.19 1270.56,2912.64 1285.19,2919.22 C1300.00,2925.49 1329.79,2937.74 1344.77,2943.71 C1359.93,2949.37 1390.37,2960.37 1405.66,2965.71 C1421.00,2970.67 1451.73,2980.22 1467.12,2984.81 C1482.56,2989.02 1513.49,2997.07 1528.98,3000.91 C1544.52,3004.37 1575.65,3010.93 1591.25,3014.02 C1606.89,3016.73 1638.23,3021.79 1653.92,3024.13 C1669.66,3026.10 1701.20,3029.66 1717.00,3031.25 C1739.18,3033.09 1764.39,3034.02 1780.15,3034.53 C1795.97,3034.69 1827.66,3034.67 1843.54,3034.48 C1859.47,3033.95 1891.38,3032.54 1907.37,3031.66 C1923.41,3030.44 1955.55,3027.64 1971.64,3026.07 C1987.79,3024.15 2020.15,3019.97 2036.35,3017.71 C2052.61,3015.09 2085.19,3009.53 2101.51,3006.57 C2117.83,3003.28 2150.27,2996.43 2166.38,2992.88 C2182.24,2989.06 2213.74,2981.18 2229.36,2977.10 C2244.74,2972.77 2275.27,2963.86 2290.41,2959.27 C2305.31,2954.43 2334.86,2944.48 2349.52,2939.38 C2363.93,2934.02 2392.51,2923.04 2406.68,2917.42 C2420.61,2911.54 2448.23,2899.53 2461.91,2893.40 C2468.56,2890.35 2511.44,2867.94 2528.00,2859.03 C2544.20,2849.72 2576.21,2830.72 2592.03,2821.03 C2607.58,2811.05 2638.12,2790.50 2653.12,2779.94 C2667.93,2769.18 2697.00,2747.08 2711.26,2735.75 C2732.56,2718.29 2790.60,2667.25 2815.02,2645.49 C2836.03,2626.11 2874.61,2589.73 2892.20,2572.73 C2907.22,2557.51 2923.38,2540.37 2923.60,2540.17 C2925.18,2538.64 2929.72,2528.46 2931.25,2524.21 C2932.91,2519.51 2935.26,2510.30 2935.95,2505.79 C2937.22,2497.14 2936.07,2480.44 2935.50,2472.73 C2935.13,2466.83 2934.61,2457.71 2934.46,2454.48 C2921.17,2467.31 2891.15,2496.35 2874.40,2512.55 C2854.21,2532.12 2810.37,2574.64 2786.72,2597.58 C2773.61,2610.31 2746.65,2636.36 2732.80,2649.66 C2718.75,2662.52 2690.50,2687.69 2676.30,2700.01 C2661.94,2711.77 2633.11,2734.90 2618.56,2745.98 C2603.93,2756.80 2574.44,2777.60 2559.58,2787.60 C2544.64,2797.32 2514.53,2815.94 2499.36,2824.84 C2479.05,2836.33 2453.86,2849.21 2438.69,2856.57 C2423.44,2863.66 2392.68,2877.08 2377.17,2883.39 C2361.58,2889.45 2330.14,2900.78 2314.29,2906.06 C2298.35,2911.07 2266.23,2920.32 2250.04,2924.55 C2233.77,2928.53 2200.97,2935.69 2184.44,2938.89 C2151.52,2944.35 2086.96,2954.49 2055.31,2959.17 C2024.99,2963.11 1965.69,2970.25 1936.71,2973.45 C1922.72,2974.77 1895.07,2977.23 1881.41,2978.37 C1872.47,2979.05 1830.44,2980.75 1813.04,2981.30 C1796.20,2981.49 1763.09,2981.48 1746.81,2981.29 C1731.09,2980.73 1700.22,2979.23 1685.07,2978.30 C1670.34,2977.08 1641.71,2974.10 1627.65,2972.29 C1613.43,2970.19 1584.51,2965.12 1569.80,2962.14 C1554.94,2958.88 1524.72,2951.47 1509.36,2947.34 C1493.85,2942.91 1462.25,2933.03 1446.33,2927.87 C1419.88,2918.72 1401.84,2911.14 1388.94,2905.71 C1375.81,2899.90 1349.30,2887.92 1335.93,2881.74 C1322.32,2875.19 1294.87,2861.71 1281.02,2854.79 C1266.94,2847.49 1238.54,2832.53 1224.22,2824.87 C1209.67,2816.83 1180.32,2800.38 1165.53,2791.97 C1150.72,2783.26 1121.44,2765.65 1106.96,2756.75 C1092.82,2747.67 1064.87,2729.33 1051.06,2720.06 C1037.59,2710.61 1010.99,2691.53 997.85,2681.90 C985.05,2672.08 959.79,2652.26 947.32,2642.26 C935.19,2632.07 913.91,2613.97 899.26,2599.96 C887.63,2588.42 864.70,2565.12 853.41,2553.35 C842.46,2541.35 820.89,2517.12 810.27,2504.88 C799.99,2492.42 779.77,2467.26 769.83,2454.56 C760.23,2441.64 741.36,2415.55 732.10,2402.39 C723.16,2389.06 705.58,2362.37 696.94,2349.00 C688.59,2335.59 672.20,2308.74 664.15,2295.29 C656.40,2281.80 641.20,2254.80 633.74,2241.27 C626.59,2227.71 612.57,2200.55 605.71,2186.95 C594.49,2163.90 590.43,2154.86 580.35,2130.38 C574.55,2115.66 563.27,2086.15 557.79,2071.35 C552.63,2056.47 542.62,2026.63 537.78,2011.68 C533.26,1996.64 524.53,1966.49 520.33,1951.37 C516.45,1936.18 509.01,1905.70 505.46,1890.40 C502.31,1874.95 496.39,1843.86 493.63,1828.23 C491.28,1812.42 486.95,1780.64 484.99,1764.67 C483.43,1748.52 480.70,1716.04 479.54,1699.72 C478.77,1683.23 477.34,1643.08 477.53,1634.29 C478.03,1619.25 479.34,1588.98 480.16,1573.77 C481.29,1558.38 483.86,1527.43 485.30,1511.88 C487.05,1496.14 490.88,1464.51 492.95,1448.61 C495.33,1432.54 500.41,1400.22 503.11,1383.97 C506.12,1367.55 512.44,1334.71 515.75,1318.29 C519.35,1302.12 526.83,1270.05 530.71,1254.14 C534.87,1238.49 543.48,1207.46 547.92,1192.07 C552.65,1176.94 562.39,1146.95 567.40,1132.08 C572.70,1117.47 583.57,1088.51 589.15,1074.16 C594.97,1059.83 609.17,1030.14 616.41,1015.31 C624.01,1000.75 639.55,971.90 647.50,957.61 C655.80,943.59 672.74,915.81 681.39,902.06 C690.40,888.58 708.75,861.89 718.10,848.68 C727.81,835.74 747.47,810.12 757.43,797.44 C767.48,785.02 787.69,760.44 797.85,748.27 C808.10,736.37 828.70,712.81 839.05,701.16 C849.49,689.76 870.48,667.23 881.02,656.10 C891.66,645.21 917.79,618.87 924.31,612.97 C936.26,602.36 960.30,581.41 972.40,571.07 C984.63,560.98 1009.25,541.07 1021.63,531.25 C1034.15,521.68 1059.34,502.81 1072.01,493.51 C1084.82,484.47 1110.58,466.64 1123.53,457.86 C1136.73,449.37 1163.40,432.73 1176.88,424.57 C1190.66,416.74 1218.51,401.40 1232.58,393.89 C1246.94,386.71 1275.97,372.66 1290.63,365.80 C1305.58,359.27 1345.68,342.31 1351.02,340.31 C1355.20,338.76 1393.65,326.28 1408.04,321.77 C1422.71,317.51 1452.30,309.23 1467.24,305.21 C1482.44,301.45 1513.12,294.17 1528.60,290.65 C1544.35,287.38 1576.11,281.09 1592.13,278.07 C1608.42,275.30 1641.12,270.04 1657.54,267.55 C1673.91,265.39 1706.60,261.38 1722.91,259.54 C1739.18,258.02 1771.67,255.31 1787.88,254.11 C1804.05,253.24 1836.34,251.82 1852.45,251.27 C1868.52,251.05 1900.60,250.92 1916.62,251.02 C1924.03,251.15 1963.50,253.15 1979.08,254.07 C1994.63,255.28 2025.70,257.98 2041.23,259.48 C2056.72,261.26 2087.69,265.11 2103.16,267.18 C2118.61,269.53 2149.47,274.53 2164.88,277.17 C2180.27,280.10 2211.03,286.19 2226.36,289.60 C2241.66,293.31 2272.14,301.59 2287.32,306.17 C2302.47,311.04 2332.64,321.65 2347.67,327.39 C2362.66,333.42 2392.53,346.35 2407.41,353.25 C2422.25,360.45 2451.82,375.70 2466.54,383.77 C2481.23,392.12 2509.54,409.64 2523.66,418.81 C2537.73,428.39 2565.83,448.09 2579.85,458.21 C2593.82,468.88 2621.69,490.76 2635.61,501.97 C2649.46,513.73 2677.12,537.78 2690.93,550.08 C2718.42,575.77 2771.40,627.53 2797.01,652.58 C2819.69,674.12 2862.12,713.72 2881.88,731.77 C2899.43,747.20 2929.91,772.61 2930.14,772.82 C2932.05,774.48 2939.32,776.71 2943.08,776.94 C2946.87,777.13 2954.64,775.64 2958.57,773.99 C2962.67,772.21 2969.69,767.50 2972.10,764.84 C2974.45,762.18 2976.98,756.39 2977.30,752.92 C2977.42,751.23 2977.41,750.10 2977.25,749.52 Z" fill="none" stroke="rgb(0, 0, 0)" stroke-width="24.80" stroke-opacity="1.00" stroke-linejoin="round"/>
<path d="M1991.09,995.77 C1994.77,996.80 2001.24,1001.06 2003.68,1004.04 C2006.10,1007.08 2009.56,1015.12 2010.37,1019.45 C2011.09,1023.62 2010.26,1031.26 2008.70,1034.69 C2007.92,1036.36 2005.32,1040.25 2004.37,1041.14 C2002.30,1043.03 1976.40,1052.56 1963.67,1056.19 C1956.93,1057.98 1942.19,1061.49 1934.54,1063.24 C1924.70,1065.32 1909.37,1067.49 1900.35,1068.03 C1891.31,1068.56 1872.31,1068.28 1862.35,1067.48 C1852.31,1066.58 1831.36,1063.53 1820.56,1061.54 C1803.16,1057.84 1776.96,1051.33 1763.42,1047.47 C1749.59,1043.20 1721.02,1033.45 1706.30,1027.97 C1682.34,1018.58 1612.57,988.26 1580.83,975.53 C1565.03,969.69 1533.51,958.52 1517.78,953.20 C1502.10,948.26 1470.86,939.16 1453.70,934.68 C1436.59,930.52 1402.46,923.17 1385.46,919.99 C1368.50,917.13 1334.68,912.40 1317.83,910.52 C1301.02,908.97 1264.90,906.91 1252.37,906.78 C1236.94,906.85 1207.64,908.60 1193.78,910.28 C1186.96,911.23 1173.66,913.48 1167.17,914.78 C1160.80,916.19 1145.25,920.20 1139.56,922.01 C1130.83,924.80 1114.33,931.39 1106.54,935.19 C1098.77,939.00 1084.15,947.64 1077.32,952.47 C1070.49,957.31 1057.76,968.01 1051.89,973.85 C1046.98,978.74 1019.64,1009.09 1010.09,1020.29 C1005.61,1025.75 996.95,1036.52 992.77,1041.84 C988.89,1047.01 982.67,1055.32 974.38,1068.39 C969.09,1077.15 958.43,1096.49 955.90,1101.77 C952.67,1108.54 946.13,1124.83 943.52,1130.37 C937.51,1143.06 926.90,1157.67 922.79,1162.17 C919.98,1165.20 912.83,1169.89 908.91,1171.27 C904.87,1172.64 896.67,1173.40 893.54,1172.60 C892.00,1172.18 889.38,1170.75 888.29,1169.75 C887.29,1168.79 885.09,1165.45 884.91,1164.50 C884.76,1163.55 894.44,1135.93 899.08,1123.96 C904.83,1110.14 917.79,1080.07 925.00,1063.80 C929.04,1055.03 937.45,1037.96 941.82,1029.67 C946.29,1021.55 955.55,1005.79 960.34,998.15 C965.24,990.68 975.35,976.24 980.57,969.26 C985.89,962.44 996.85,949.30 1002.49,942.98 C1011.09,933.66 1033.00,913.35 1043.72,904.71 C1054.59,896.29 1077.38,881.04 1089.29,874.21 C1095.32,870.90 1107.61,864.64 1113.87,861.67 C1120.55,858.59 1133.68,853.76 1140.97,851.69 C1148.28,849.63 1162.92,846.60 1172.29,845.19 C1179.03,844.28 1198.55,842.61 1207.83,842.18 C1217.37,841.98 1237.25,842.22 1247.59,842.66 C1268.78,843.99 1304.67,848.39 1318.11,850.43 C1331.88,852.74 1360.57,858.33 1375.16,861.33 C1390.41,864.89 1421.58,872.54 1437.50,876.64 C1454.07,881.30 1487.88,891.16 1505.12,896.36 C1540.91,907.87 1613.35,932.33 1648.74,944.22 C1665.09,949.48 1696.88,959.55 1712.33,964.36 C1726.87,968.71 1755.07,976.97 1768.72,980.87 C1794.21,987.77 1838.08,998.56 1850.85,1001.07 C1864.52,1003.55 1885.14,1006.05 1894.97,1006.42 C1904.77,1006.76 1922.01,1005.52 1929.38,1003.94 C1930.55,1003.68 1950.93,998.52 1955.81,997.56 C1961.82,996.42 1972.74,995.15 1977.65,995.02 C1982.54,994.89 1990.51,995.61 1991.09,995.77 Z" fill="none" stroke="rgb(0, 0, 0)" stroke-width="24.80" stroke-opacity="1.00" stroke-linejoin="round"/>
<path d="M1744.42,1320.37 C1741.15,1319.74 1727.88,1318.85 1718.78,1318.65 C1707.52,1318.72 1696.47,1319.49 1688.45,1322.08 C1684.46,1323.39 1676.32,1327.02 1672.16,1329.34 C1663.37,1334.30 1651.49,1343.98 1647.12,1348.00 C1643.10,1351.77 1631.80,1363.44 1626.58,1369.28 C1616.16,1381.49 1594.60,1410.29 1584.56,1424.29 C1575.02,1438.04 1559.01,1462.20 1548.23,1480.32 C1544.09,1487.67 1536.12,1502.22 1532.30,1509.41 C1528.80,1516.44 1521.54,1531.41 1519.09,1537.38 C1516.25,1544.34 1511.59,1558.33 1509.77,1565.35 C1507.97,1572.38 1505.25,1587.54 1504.69,1594.77 C1504.06,1603.05 1504.19,1619.73 1504.95,1628.12 C1505.74,1636.58 1508.03,1649.73 1510.53,1661.48 C1512.33,1669.22 1516.16,1683.62 1518.20,1690.27 C1521.24,1699.57 1525.83,1710.21 1530.79,1718.26 C1535.14,1725.27 1543.66,1734.81 1549.82,1739.98 C1555.13,1744.42 1568.53,1753.59 1573.64,1756.08 C1580.06,1759.18 1594.04,1765.00 1601.44,1767.76 C1611.27,1771.23 1625.05,1774.34 1633.41,1774.85 C1642.26,1775.35 1656.01,1773.92 1663.89,1772.17 C1670.69,1770.64 1684.76,1766.21 1692.02,1763.30 C1695.22,1762.01 1737.06,1744.38 1752.63,1738.35 C1782.09,1727.70 1831.92,1712.69 1845.21,1707.67 C1851.51,1705.12 1870.46,1696.84 1878.08,1692.51 C1882.57,1689.94 1890.77,1684.23 1892.19,1683.54 C1893.46,1682.94 1895.58,1682.50 1896.39,1682.67 C1898.01,1683.10 1899.07,1686.88 1898.76,1688.97 C1898.19,1692.85 1896.37,1700.00 1894.04,1707.46 C1889.73,1720.15 1855.47,1806.83 1842.12,1840.24 C1828.85,1873.65 1804.63,1934.90 1793.68,1962.75 C1787.69,1978.29 1777.36,2005.75 1776.71,2008.54 C1776.03,2011.58 1776.00,2016.38 1776.65,2018.65 C1777.08,2019.98 1778.07,2021.17 1779.37,2021.84 C1781.63,2022.94 1788.47,2023.39 1792.66,2022.72 C1795.06,2022.30 1799.12,2021.01 1801.22,2019.95 C1805.35,2017.78 1812.33,2011.07 1813.80,2008.21 C1813.88,2008.04 1822.01,1992.18 1824.91,1985.96 C1830.97,1972.22 1844.20,1938.82 1851.04,1920.90 C1862.84,1889.11 1887.21,1823.87 1899.78,1790.43 C1903.40,1781.33 1909.66,1765.69 1913.16,1760.21 C1914.82,1757.67 1919.80,1752.50 1922.50,1750.50 C1923.09,1750.07 1929.66,1746.18 1933.96,1743.82 C1938.85,1741.16 1945.12,1739.08 1949.51,1739.09 C1953.58,1739.15 1960.68,1741.12 1964.20,1742.66 C1970.05,1745.28 1983.29,1754.58 1990.08,1759.56 C1993.66,1761.90 2001.43,1765.74 2005.55,1767.20 C2009.76,1768.67 2018.17,1770.54 2022.21,1771.04 C2029.84,1771.94 2046.21,1771.30 2055.10,1769.76 C2060.47,1768.81 2114.16,1756.22 2118.87,1754.84 C2123.69,1753.42 2132.04,1749.31 2141.17,1744.16 C2144.70,1742.08 2152.27,1737.72 2155.35,1736.79 C2158.83,1735.78 2164.53,1736.19 2167.14,1737.18 C2169.50,1738.12 2174.08,1741.63 2175.98,1743.95 C2176.69,1744.81 2179.40,1748.40 2180.37,1749.39 C2182.94,1751.96 2191.52,1756.82 2196.69,1758.64 C2203.61,1761.04 2215.69,1764.23 2223.18,1765.76 C2230.17,1767.03 2250.03,1769.89 2254.03,1770.25 C2258.24,1770.61 2266.70,1770.52 2270.84,1770.06 C2274.98,1769.58 2283.14,1767.81 2287.16,1766.51 C2295.20,1763.88 2310.17,1755.64 2317.46,1750.22 C2324.14,1745.22 2337.17,1732.71 2343.53,1725.20 C2349.88,1717.67 2366.44,1693.22 2368.20,1690.60 C2373.92,1682.06 2383.79,1669.99 2387.87,1666.54 C2389.90,1664.84 2393.54,1662.72 2395.15,1662.29 C2396.77,1661.89 2399.49,1662.35 2400.64,1663.17 C2401.76,1664.00 2403.62,1666.62 2404.41,1668.44 C2405.96,1672.15 2407.79,1683.70 2408.06,1691.54 C2408.37,1700.77 2406.34,1750.82 2406.80,1769.64 C2407.21,1778.78 2408.86,1799.58 2409.50,1804.50 C2410.68,1813.41 2414.28,1830.82 2416.57,1838.69 C2418.87,1846.55 2424.55,1860.95 2427.89,1867.41 C2432.89,1877.06 2450.03,1905.24 2458.38,1917.46 C2466.65,1929.18 2484.85,1951.77 2494.80,1962.70 C2502.05,1970.39 2509.89,1978.10 2516.62,1984.03 C2521.50,1988.20 2536.06,1999.47 2543.15,2004.51 C2554.31,2012.05 2560.44,2015.78 2570.55,2021.35 C2580.85,2026.83 2611.87,2041.54 2627.10,2048.08 C2643.04,2054.52 2674.80,2066.08 2690.06,2070.68 C2697.60,2072.82 2712.43,2076.63 2719.72,2078.30 C2730.08,2080.46 2742.99,2082.34 2751.19,2083.30 C2759.29,2084.05 2775.18,2084.90 2782.97,2085.00 C2792.20,2084.87 2804.17,2084.18 2813.14,2083.28 C2828.22,2081.43 2859.63,2076.39 2875.97,2073.19 C2888.62,2070.51 2922.24,2061.38 2937.83,2056.75 C2953.97,2051.60 2986.62,2040.81 3002.41,2035.10 C3017.29,2029.36 3047.01,2016.63 3056.59,2011.96 C3061.38,2009.61 3079.63,1998.43 3086.48,1993.52 C3093.30,1988.61 3104.85,1978.75 3109.82,1973.59 C3114.65,1968.43 3124.26,1957.41 3129.04,1951.55 C3133.80,1945.47 3145.45,1929.59 3147.46,1926.32 C3154.78,1914.13 3169.39,1887.56 3176.69,1873.18 C3181.55,1863.18 3186.93,1850.64 3189.64,1842.93 C3192.35,1835.23 3196.70,1819.54 3198.34,1811.56 C3200.33,1801.86 3201.38,1790.04 3201.84,1781.17 C3202.02,1773.71 3201.77,1758.54 3201.35,1750.83 C3200.72,1743.05 3198.85,1727.26 3197.62,1719.25 C3194.79,1703.21 3187.94,1671.26 3183.92,1655.36 C3179.50,1639.50 3170.38,1611.66 3165.38,1597.70 C3160.08,1583.71 3148.61,1555.65 3142.23,1541.41 C3135.24,1526.85 3119.38,1496.82 3110.52,1481.34 C3101.52,1466.37 3084.91,1440.42 3076.31,1427.27 C3057.60,1400.00 3017.15,1343.78 2998.94,1317.62 C2990.84,1305.44 2973.17,1278.30 2966.46,1267.12 C2961.37,1258.34 2952.29,1241.64 2948.30,1233.73 C2944.67,1226.10 2938.46,1211.73 2935.98,1204.97 C2931.32,1191.62 2923.89,1165.04 2921.14,1151.81 C2920.34,1147.83 2918.29,1129.05 2917.78,1121.24 C2917.49,1113.40 2917.62,1094.67 2917.93,1089.75 C2918.45,1081.88 2920.94,1066.40 2922.91,1058.83 C2924.90,1051.27 2930.08,1037.15 2933.65,1030.43 C2936.95,1024.39 2944.65,1012.49 2949.06,1006.63 C2953.48,1000.78 2964.88,987.69 2968.99,983.65 C2974.60,978.17 2987.36,968.29 2994.47,963.90 C3001.61,959.52 3018.60,951.28 3024.97,949.12 C3031.53,946.93 3045.44,943.14 3052.69,941.46 C3060.14,939.93 3075.68,937.36 3083.76,936.31 C3092.06,935.42 3109.23,934.12 3117.80,933.75 C3126.20,933.58 3142.56,933.87 3150.51,934.32 C3159.87,935.11 3173.48,936.87 3180.78,938.20 C3190.20,940.07 3203.80,944.13 3211.18,947.01 C3218.75,949.98 3232.96,957.08 3239.60,961.20 C3246.24,965.33 3258.12,974.40 3264.29,979.94 C3270.02,985.11 3280.71,996.20 3285.67,1002.13 C3290.61,1008.07 3300.18,1021.35 3303.87,1027.38 C3306.78,1032.17 3314.77,1047.53 3318.02,1054.63 C3321.14,1061.86 3326.88,1076.82 3329.50,1084.56 C3333.12,1096.18 3336.26,1108.54 3336.82,1116.35 C3337.08,1120.24 3336.86,1127.87 3336.38,1131.61 C3335.88,1135.34 3334.14,1142.67 3332.90,1146.27 C3330.38,1153.45 3322.38,1167.17 3317.39,1173.09 C3312.89,1178.39 3302.58,1188.19 3296.47,1192.99 C3290.33,1197.78 3276.29,1207.00 3268.39,1211.43 C3254.70,1219.08 3214.71,1236.33 3198.20,1243.79 C3180.69,1252.20 3159.73,1263.59 3151.40,1269.15 C3149.91,1270.16 3148.02,1271.80 3147.04,1273.07 C3146.10,1274.32 3145.20,1277.19 3145.26,1278.67 C3145.36,1280.16 3146.59,1283.33 3147.68,1284.92 C3149.50,1287.48 3157.39,1294.99 3160.67,1297.63 C3163.80,1300.12 3171.35,1305.16 3174.19,1306.02 C3180.50,1307.94 3191.96,1309.49 3197.16,1309.03 C3203.75,1308.40 3228.11,1300.98 3232.89,1298.21 C3243.56,1292.09 3266.87,1278.13 3279.52,1270.30 C3286.58,1265.73 3301.20,1256.18 3308.76,1251.18 C3319.78,1243.78 3331.73,1234.77 3338.25,1228.83 C3344.74,1222.88 3355.93,1210.28 3360.63,1203.63 C3365.30,1196.97 3372.83,1182.95 3375.70,1175.59 C3378.66,1167.91 3381.94,1154.60 3382.89,1147.34 C3383.75,1140.64 3384.17,1126.75 3383.74,1119.57 C3383.28,1112.39 3381.08,1097.54 3379.33,1089.88 C3377.56,1082.21 3373.05,1067.42 3369.67,1058.25 C3367.15,1051.71 3359.12,1033.53 3355.22,1025.56 C3351.18,1017.81 3341.79,1001.50 3338.19,995.87 C3333.60,988.95 3323.94,975.87 3318.85,969.71 C3313.72,963.62 3302.90,952.30 3297.21,947.08 C3290.84,941.26 3278.86,932.04 3272.32,927.72 C3265.64,923.32 3251.67,915.52 3244.37,912.11 C3237.07,908.72 3221.83,902.91 3213.90,900.50 C3205.96,898.10 3189.41,894.28 3180.90,892.88 C3164.02,890.34 3130.76,887.24 3115.16,886.73 C3107.48,886.62 3092.48,886.85 3085.17,887.18 C3077.97,887.66 3060.78,889.41 3055.94,890.29 C3045.75,892.22 3029.65,896.28 3021.50,898.97 C3013.36,901.68 2998.00,908.13 2990.77,911.88 C2983.55,915.65 2972.79,922.47 2963.73,928.88 C2957.50,933.52 2945.65,943.09 2940.02,948.01 C2933.51,954.03 2924.30,963.31 2919.54,968.63 C2912.79,976.39 2907.14,984.10 2902.00,992.73 C2898.00,999.46 2890.99,1013.37 2887.97,1020.54 C2884.96,1027.72 2879.93,1042.52 2877.91,1050.14 C2875.91,1057.72 2872.86,1073.16 2871.83,1080.89 C2870.82,1088.61 2869.78,1104.14 2869.76,1111.94 C2869.75,1118.72 2870.49,1131.83 2871.81,1141.68 C2872.88,1148.50 2875.53,1162.21 2877.10,1169.10 C2878.83,1176.01 2882.78,1189.90 2885.01,1196.88 C2889.75,1210.80 2901.72,1239.52 2908.97,1254.51 C2912.78,1262.09 2921.05,1277.57 2925.32,1285.38 C2936.78,1305.14 2951.29,1327.92 2959.30,1340.30 C2968.04,1353.14 2986.26,1379.27 2995.74,1392.57 C3005.95,1406.33 3026.42,1433.96 3036.28,1447.70 C3045.72,1461.30 3063.36,1488.10 3071.56,1501.30 C3079.35,1514.36 3095.22,1542.81 3103.15,1559.03 C3106.93,1567.09 3113.96,1583.09 3117.20,1591.03 C3123.32,1606.82 3131.87,1633.98 3136.81,1652.93 C3140.27,1667.78 3145.84,1696.65 3147.70,1710.51 C3148.51,1717.36 3149.62,1728.48 3150.03,1740.58 C3150.10,1749.16 3149.48,1767.67 3148.95,1774.24 C3148.17,1782.41 3145.81,1798.35 3144.23,1806.13 C3142.51,1813.82 3138.55,1828.84 3136.32,1836.16 C3133.93,1843.36 3128.66,1857.38 3125.77,1864.21 C3120.93,1874.86 3117.96,1880.35 3111.52,1890.55 C3107.25,1896.91 3098.17,1909.29 3093.35,1915.32 C3088.34,1921.23 3077.79,1932.73 3072.24,1938.30 C3067.70,1942.67 3054.61,1954.11 3048.41,1959.07 C3042.05,1963.88 3028.84,1973.03 3021.99,1977.38 C3018.27,1979.69 3001.71,1987.95 2994.75,1991.13 C2987.65,1994.20 2973.02,2000.00 2965.49,2002.74 C2953.50,2006.83 2918.34,2016.91 2902.74,2020.93 C2887.31,2024.61 2862.75,2029.88 2840.77,2033.18 C2825.13,2035.21 2786.81,2038.93 2779.06,2039.15 C2771.40,2039.36 2756.89,2038.83 2748.02,2038.01 C2740.15,2037.15 2724.24,2034.56 2716.20,2032.83 C2711.62,2031.81 2693.84,2026.44 2686.41,2023.90 C2678.94,2021.15 2663.83,2015.04 2656.19,2011.67 C2641.32,2004.76 2610.38,1988.17 2596.50,1980.37 C2590.02,1976.60 2577.55,1969.18 2571.55,1965.54 C2561.94,1959.49 2555.94,1955.35 2544.15,1946.34 C2535.84,1939.70 2524.23,1929.22 2519.37,1923.99 C2516.76,1921.17 2505.56,1908.04 2501.15,1902.56 C2496.82,1897.00 2490.38,1888.38 2484.82,1879.55 C2481.11,1873.45 2473.87,1860.94 2470.34,1854.52 C2465.81,1846.07 2460.64,1833.93 2458.23,1825.86 C2455.85,1817.77 2452.59,1800.99 2451.86,1792.81 C2451.36,1785.88 2450.81,1771.28 2450.76,1763.62 C2450.96,1747.81 2453.42,1713.42 2455.08,1697.06 C2456.06,1689.26 2458.16,1674.05 2459.27,1666.63 C2460.55,1659.06 2464.88,1641.61 2467.29,1633.15 C2470.36,1623.39 2475.73,1608.68 2478.42,1602.56 C2481.52,1595.54 2488.45,1582.37 2492.29,1576.21 C2496.01,1570.27 2503.94,1559.48 2509.36,1553.55 C2514.08,1548.41 2524.25,1538.92 2529.72,1534.58 C2536.38,1529.30 2547.42,1522.52 2555.09,1519.36 C2562.78,1516.22 2581.73,1511.09 2591.50,1509.50 C2594.56,1509.01 2613.27,1507.18 2621.13,1506.68 C2637.45,1505.92 2674.60,1506.40 2693.96,1507.23 C2710.63,1508.13 2740.24,1510.01 2753.19,1510.99 C2760.44,1511.68 2776.69,1515.65 2780.59,1517.83 C2785.03,1520.38 2794.54,1529.19 2801.68,1537.33 C2807.20,1543.85 2820.51,1559.76 2824.77,1563.54 C2827.58,1566.01 2832.70,1569.18 2835.17,1569.99 C2836.44,1570.38 2838.95,1570.64 2840.15,1570.47 C2841.39,1570.25 2843.79,1569.01 2844.89,1568.03 C2847.06,1565.99 2850.84,1558.51 2851.94,1554.06 C2852.99,1549.64 2852.96,1540.17 2851.88,1535.41 C2850.83,1530.95 2847.51,1523.83 2846.10,1521.35 C2842.52,1515.14 2832.47,1502.61 2825.41,1495.52 C2818.99,1489.09 2806.79,1478.61 2800.78,1474.37 C2794.72,1470.12 2782.18,1463.67 2776.21,1461.74 C2771.43,1460.23 2756.97,1457.99 2748.65,1456.97 C2732.61,1455.30 2699.02,1453.29 2683.08,1452.44 C2664.79,1451.71 2630.88,1450.68 2615.25,1450.38 C2608.83,1450.41 2592.62,1450.55 2581.34,1451.86 C2576.33,1452.45 2569.85,1453.84 2566.72,1454.96 C2561.40,1456.93 2550.28,1461.36 2543.83,1464.40 C2536.96,1467.74 2524.27,1474.03 2515.32,1478.96 C2508.04,1483.16 2495.01,1492.11 2488.48,1496.67 C2481.60,1501.65 2468.61,1511.56 2462.67,1516.39 C2459.26,1519.22 2447.64,1530.07 2443.23,1534.54 C2433.66,1544.77 2381.10,1607.95 2359.80,1633.88 C2350.22,1646.19 2329.92,1673.68 2320.67,1687.95 C2317.65,1692.80 2313.68,1699.60 2312.79,1700.97 C2310.91,1703.85 2306.38,1709.15 2303.87,1711.42 C2301.35,1713.67 2295.81,1717.44 2292.66,1719.04 C2289.52,1720.61 2282.47,1722.92 2278.66,1723.69 C2270.92,1725.21 2256.02,1725.18 2242.98,1723.84 C2234.89,1722.98 2214.93,1720.78 2214.72,1720.72 C2213.84,1720.45 2208.41,1718.08 2207.51,1717.64 C2205.32,1716.53 2200.61,1710.96 2199.33,1708.06 C2199.25,1707.87 2195.13,1698.83 2193.59,1695.37 C2191.51,1690.61 2189.92,1683.46 2190.07,1679.19 C2190.25,1675.34 2192.02,1668.55 2193.15,1665.63 C2195.10,1660.70 2201.30,1650.20 2205.45,1644.81 C2210.55,1638.26 2219.00,1624.93 2223.93,1615.63 C2230.23,1603.49 2244.30,1571.02 2250.25,1555.97 C2256.35,1539.72 2269.16,1502.48 2272.70,1490.31 C2274.70,1482.98 2278.03,1469.18 2279.38,1462.70 C2281.19,1453.07 2282.84,1434.60 2282.09,1425.98 C2281.33,1417.71 2277.74,1407.97 2273.78,1398.31 C2271.22,1392.34 2265.93,1380.72 2262.25,1374.17 C2258.41,1367.55 2249.36,1353.71 2245.62,1350.21 C2242.90,1347.70 2236.33,1343.27 2232.50,1341.34 C2227.27,1338.76 2212.67,1334.84 2205.07,1333.55 C2198.44,1332.43 2180.26,1330.72 2171.93,1330.16 C2163.82,1329.76 2144.82,1329.44 2139.68,1329.76 C2128.98,1330.49 2113.71,1332.40 2104.16,1334.20 C2096.90,1335.64 2079.20,1339.29 2078.50,1339.50 C2074.11,1340.85 2067.01,1344.17 2065.10,1345.76 C2056.76,1353.10 2030.18,1376.07 2030.04,1376.21 C2027.49,1378.69 2022.14,1385.29 2019.50,1389.25 C2014.20,1397.23 2005.15,1415.50 2001.16,1425.04 C1997.40,1434.35 1986.93,1464.19 1982.12,1479.49 C1979.70,1487.70 1974.82,1504.63 1972.36,1513.33 C1969.72,1521.96 1963.36,1539.50 1960.42,1546.28 C1957.04,1554.07 1949.49,1568.77 1945.32,1575.69 C1941.14,1582.59 1931.54,1596.17 1926.50,1602.13 C1920.42,1609.29 1907.05,1622.27 1899.78,1628.07 C1892.50,1633.86 1876.75,1644.06 1868.28,1648.48 C1861.34,1652.08 1840.85,1660.68 1834.78,1662.92 C1827.34,1665.60 1814.81,1669.04 1809.70,1669.81 C1804.63,1670.55 1796.27,1670.10 1793.44,1668.57 C1791.57,1667.53 1789.01,1664.31 1788.36,1662.20 C1787.75,1660.07 1787.77,1654.76 1788.40,1651.59 C1789.74,1645.13 1798.49,1626.14 1801.41,1618.93 C1805.09,1609.78 1810.99,1591.88 1814.02,1580.62 C1815.77,1573.90 1819.66,1554.91 1821.01,1546.97 C1822.19,1538.93 1824.09,1522.55 1824.80,1514.22 C1825.36,1505.78 1825.95,1488.83 1826.15,1480.42 C1826.10,1461.46 1824.85,1435.95 1823.13,1421.07 C1821.80,1410.68 1817.30,1392.46 1814.27,1385.15 C1812.39,1380.66 1803.75,1364.83 1800.67,1359.97 C1795.88,1352.42 1789.07,1344.12 1782.33,1338.38 C1776.52,1333.48 1764.27,1326.47 1756.66,1323.82 C1753.02,1322.57 1745.71,1320.62 1744.42,1320.37 Z" fill="none" stroke="rgb(0, 0, 0)" stroke-width="24.80" stroke-opacity="1.00" stroke-linejoin="round"/>
<path d="M1480.50,1029.50 C1480.79,1028.74 1481.26,1028.22 1481.91,1027.93 C1484.20,1026.96 1486.47,1026.29 1488.71,1025.93 C1489.45,1025.82 1490.89,1027.45 1491.32,1027.84 C1493.90,1030.58 1498.82,1042.18 1501.17,1051.06 C1503.67,1060.64 1506.91,1080.60 1507.65,1091.15 C1508.37,1101.72 1508.03,1123.84 1506.96,1135.40 C1505.92,1145.63 1504.75,1150.10 1504.06,1152.45 C1500.53,1163.71 1492.96,1187.05 1488.93,1199.13 C1484.39,1212.04 1474.80,1238.67 1469.75,1252.40 C1464.20,1266.95 1452.59,1296.89 1446.53,1312.26 C1432.89,1345.49 1403.87,1414.54 1388.48,1450.37 C1380.80,1467.57 1365.56,1501.20 1358.00,1517.63 C1350.56,1533.28 1335.82,1563.82 1328.51,1578.70 C1321.32,1592.81 1307.07,1620.25 1300.01,1633.59 C1286.14,1658.71 1264.11,1696.26 1250.84,1717.40 C1244.33,1727.20 1231.41,1746.19 1225.06,1755.00 C1218.77,1763.43 1206.40,1779.10 1200.30,1786.35 C1194.27,1793.20 1181.22,1806.96 1176.56,1811.43 C1170.02,1817.52 1159.37,1826.35 1153.85,1830.26 C1142.79,1837.79 1120.81,1851.77 1109.88,1858.23 C1099.00,1864.34 1077.36,1875.51 1066.60,1880.56 C1061.25,1882.91 1050.55,1887.48 1041.58,1890.94 C1032.67,1894.15 1014.96,1899.84 1006.18,1902.31 C997.44,1904.53 980.10,1908.24 971.49,1909.72 C962.93,1910.95 946.08,1912.71 938.06,1913.31 C930.34,1913.74 915.84,1914.05 909.05,1913.95 C895.15,1913.45 879.97,1910.87 879.77,1910.78 C876.98,1909.60 867.43,1902.99 864.05,1899.88 C860.70,1896.74 855.09,1889.69 852.86,1885.80 C850.60,1881.79 847.71,1874.15 847.33,1871.13 C847.01,1868.15 848.45,1863.66 850.21,1862.14 C852.16,1860.52 862.89,1857.26 867.99,1856.45 C873.11,1855.66 885.30,1854.97 892.35,1855.07 C898.11,1855.21 915.99,1856.51 924.50,1857.27 C933.18,1857.96 951.46,1857.67 960.73,1856.70 C970.01,1855.70 989.00,1852.04 998.71,1849.38 C1011.01,1845.99 1038.96,1835.55 1049.45,1830.94 C1057.88,1827.08 1081.45,1814.90 1092.32,1808.72 C1103.30,1802.12 1131.47,1783.72 1136.82,1779.60 C1142.47,1775.21 1153.13,1765.62 1159.61,1759.07 C1164.20,1754.28 1176.91,1739.69 1182.72,1732.48 C1188.55,1724.89 1200.27,1708.56 1206.16,1699.84 C1212.07,1690.73 1223.96,1671.38 1229.93,1661.14 C1241.93,1639.51 1258.80,1606.75 1265.05,1594.21 C1271.35,1580.87 1283.96,1553.39 1290.29,1539.24 C1296.65,1524.30 1309.42,1493.60 1315.82,1477.85 C1322.25,1461.30 1335.16,1427.38 1341.63,1410.03 C1348.14,1391.86 1361.19,1354.74 1367.74,1335.77 C1380.72,1296.76 1405.59,1223.12 1417.48,1188.49 C1428.14,1159.04 1448.54,1104.04 1457.67,1081.08 C1466.19,1060.71 1480.39,1029.81 1480.50,1029.50 Z" fill="none" stroke="rgb(0, 0, 0)" stroke-width="24.80" stroke-opacity="1.00" stroke-linejoin="round"/>
<path d="M5125.50,1555.50 C5125.49,1556.61 5120.45,1569.33 5117.42,1575.87 C5114.46,1581.94 5107.41,1595.28 5103.32,1602.54 C5092.17,1621.34 5074.35,1648.43 5063.90,1662.52 C5058.60,1669.42 5049.29,1680.98 5042.52,1688.79 C5037.11,1694.81 5026.08,1706.42 5020.46,1712.01 C5014.77,1717.47 5003.18,1727.95 4997.28,1732.98 C4990.47,1738.59 4978.91,1746.87 4972.39,1750.79 C4965.86,1754.71 4952.20,1761.48 4945.07,1764.34 C4937.47,1767.37 4923.27,1771.70 4914.81,1773.54 C4906.81,1775.27 4890.16,1777.60 4881.52,1778.20 C4872.87,1778.78 4857.99,1778.82 4845.74,1778.31 C4825.06,1777.00 4798.34,1774.03 4786.19,1771.74 C4776.73,1769.75 4758.80,1763.94 4752.08,1759.87 C4748.74,1757.81 4744.45,1753.85 4742.06,1750.95 C4738.03,1745.99 4731.45,1733.71 4729.15,1726.50 C4727.83,1722.32 4725.66,1713.69 4724.75,1709.03 C4723.80,1704.08 4722.20,1692.81 4721.44,1690.19 C4720.86,1688.28 4719.36,1685.12 4718.46,1683.91 C4717.54,1682.74 4715.38,1681.13 4714.14,1680.68 C4711.86,1679.92 4706.91,1680.81 4704.55,1681.83 C4700.33,1683.73 4689.74,1691.86 4683.38,1698.08 C4679.94,1701.45 4662.90,1719.34 4656.21,1725.89 C4648.38,1733.17 4636.55,1743.31 4630.22,1747.92 C4622.65,1753.41 4607.94,1761.57 4601.01,1764.12 C4594.59,1766.46 4580.39,1769.47 4573.53,1769.98 C4566.83,1770.45 4553.71,1769.62 4547.31,1768.38 C4540.91,1767.11 4524.23,1761.31 4521.09,1760.46 C4513.81,1758.55 4495.98,1757.11 4485.92,1757.61 C4475.81,1758.25 4463.52,1759.56 4456.13,1760.61 C4448.45,1761.89 4432.20,1765.13 4423.62,1767.09 C4414.64,1769.37 4396.80,1773.77 4388.26,1775.61 C4378.40,1777.47 4364.40,1779.53 4357.28,1780.07 C4350.36,1780.58 4333.95,1780.49 4325.85,1779.32 C4321.28,1778.64 4312.91,1776.55 4309.11,1775.14 C4305.34,1773.71 4298.71,1770.21 4295.56,1767.98 C4289.80,1763.84 4279.71,1754.02 4275.78,1748.73 C4273.91,1746.17 4270.25,1740.22 4268.45,1736.58 C4266.57,1732.70 4263.52,1724.16 4262.44,1719.72 C4261.31,1714.94 4259.90,1702.90 4259.64,1701.43 C4259.28,1699.51 4258.12,1696.06 4257.38,1694.72 C4256.63,1693.42 4254.79,1691.50 4253.70,1690.88 C4251.39,1689.66 4246.13,1690.16 4243.63,1691.11 C4239.53,1692.74 4230.02,1699.20 4224.15,1704.35 C4218.11,1709.68 4202.53,1725.72 4197.23,1730.89 C4190.18,1737.63 4176.36,1749.15 4169.59,1753.92 C4162.97,1758.56 4147.47,1767.52 4139.33,1770.79 C4131.33,1773.96 4115.72,1777.36 4107.87,1777.68 C4104.12,1777.81 4097.02,1777.40 4093.68,1776.87 C4090.34,1776.31 4084.08,1774.53 4081.15,1773.31 C4078.39,1772.14 4071.83,1768.39 4069.09,1766.28 C4066.02,1763.90 4060.45,1758.14 4057.94,1754.76 C4055.40,1751.31 4051.86,1745.09 4049.00,1739.22 C4046.98,1735.25 4042.29,1728.80 4039.75,1726.48 C4037.19,1724.20 4031.52,1721.32 4028.59,1720.81 C4025.80,1720.36 4020.24,1720.59 4017.41,1721.29 C4014.58,1722.02 4008.55,1724.67 4005.36,1726.58 C3998.88,1730.51 3983.23,1744.45 3977.41,1749.00 C3970.17,1754.63 3954.96,1764.21 3948.32,1767.32 C3940.99,1770.72 3924.89,1775.15 3916.99,1775.95 C3909.70,1776.65 3893.48,1775.73 3886.36,1774.38 C3879.33,1773.01 3866.51,1768.51 3860.54,1765.06 C3854.80,1761.70 3843.77,1752.35 3839.93,1747.56 C3837.75,1744.79 3834.26,1738.07 3832.97,1734.17 C3831.71,1730.23 3830.09,1721.25 3829.73,1716.20 C3829.24,1708.84 3830.22,1693.82 3831.22,1686.04 C3832.29,1678.93 3835.18,1663.75 3836.99,1655.68 C3840.24,1642.48 3851.86,1603.50 3857.03,1587.66 C3859.56,1580.36 3864.58,1566.38 3867.06,1559.71 C3869.50,1553.50 3879.22,1531.04 3882.94,1523.90 C3887.25,1515.67 3895.96,1502.93 3898.63,1498.57 C3902.01,1493.03 3907.98,1481.18 3910.16,1475.25 C3911.64,1471.15 3913.80,1462.59 3914.40,1458.40 C3915.00,1453.97 3915.12,1446.12 3914.54,1442.69 C3913.92,1439.30 3911.26,1433.41 3909.50,1431.50 C3908.04,1429.97 3902.85,1427.15 3899.91,1426.32 C3896.91,1425.50 3878.34,1424.15 3868.95,1421.99 C3861.76,1420.33 3843.39,1415.00 3834.50,1411.74 C3827.77,1409.21 3807.52,1400.99 3801.15,1399.12 C3798.07,1398.22 3792.07,1397.17 3791.41,1397.23 C3789.80,1397.41 3787.28,1398.48 3786.52,1399.43 C3785.83,1400.37 3785.39,1403.03 3785.68,1404.60 C3785.91,1405.76 3789.32,1416.38 3789.69,1421.19 C3789.84,1423.37 3789.74,1429.04 3789.50,1430.50 C3789.25,1431.95 3776.38,1462.17 3770.33,1475.09 C3763.02,1489.77 3747.08,1520.75 3738.44,1537.05 C3729.56,1552.96 3711.44,1583.68 3702.21,1598.50 C3692.86,1612.95 3673.12,1641.57 3662.97,1655.33 C3652.66,1668.68 3629.10,1697.07 3620.79,1706.22 C3615.30,1711.96 3604.15,1722.78 3598.44,1727.75 C3592.71,1732.60 3580.23,1742.06 3575.02,1745.51 C3569.02,1749.47 3556.12,1756.84 3550.50,1759.50 C3543.04,1763.02 3526.64,1768.98 3518.40,1771.17 C3510.16,1773.35 3493.25,1776.23 3484.59,1776.95 C3475.87,1777.65 3458.22,1777.48 3449.72,1777.21 C3441.54,1776.84 3426.15,1775.76 3418.94,1775.05 C3412.05,1774.24 3398.00,1772.06 3393.34,1771.12 C3390.19,1770.49 3380.27,1767.31 3375.79,1765.50 C3371.35,1763.67 3363.65,1759.64 3360.38,1757.43 C3357.13,1755.20 3352.32,1750.82 3349.75,1747.79 C3344.88,1741.93 3337.50,1731.84 3333.95,1726.20 C3330.44,1720.52 3324.76,1706.99 3322.34,1699.93 C3320.25,1693.78 3315.99,1678.01 3314.18,1670.15 C3312.50,1661.95 3309.52,1644.88 3308.93,1638.08 C3307.92,1624.71 3306.11,1588.04 3306.80,1580.26 C3307.55,1572.09 3311.31,1554.49 3314.32,1545.04 C3317.56,1534.97 3323.58,1521.03 3326.59,1514.56 C3333.06,1501.34 3347.51,1475.91 3358.81,1457.99 C3368.99,1442.72 3390.94,1412.22 3398.62,1402.54 C3403.36,1396.74 3412.67,1385.93 3417.24,1380.91 C3423.06,1374.61 3438.51,1360.55 3445.73,1355.15 C3452.94,1349.79 3464.92,1342.99 3473.30,1339.41 C3480.67,1336.39 3492.28,1332.41 3498.14,1330.89 C3505.40,1329.03 3518.27,1327.40 3527.11,1328.01 C3535.10,1328.61 3549.77,1333.12 3556.78,1335.33 C3569.00,1339.30 3570.13,1339.76 3584.98,1346.62 C3590.82,1349.34 3595.04,1351.52 3597.95,1353.65 C3600.73,1355.72 3605.64,1360.76 3607.26,1363.46 C3608.99,1366.39 3611.45,1371.80 3612.51,1374.98 C3613.66,1378.48 3615.09,1385.19 3615.47,1389.43 C3616.18,1397.92 3615.12,1412.55 3613.81,1422.81 C3612.66,1430.34 3608.83,1450.94 3607.76,1455.47 C3605.73,1463.98 3600.26,1479.04 3596.86,1485.44 C3594.75,1489.37 3590.52,1495.65 3587.24,1499.35 C3584.02,1502.92 3576.88,1508.91 3572.95,1511.31 C3568.90,1513.75 3560.90,1517.02 3558.01,1517.34 C3556.60,1517.46 3554.28,1517.09 3553.38,1516.59 C3551.56,1515.47 3550.40,1511.21 3550.43,1508.55 C3550.55,1504.22 3553.67,1492.37 3556.75,1484.52 C3559.29,1478.07 3568.66,1457.66 3571.82,1449.02 C3574.91,1440.52 3578.91,1424.60 3579.50,1418.50 C3579.95,1413.55 3579.53,1404.87 3578.67,1401.02 C3577.78,1397.20 3574.68,1390.59 3572.48,1387.83 C3570.53,1385.43 3564.94,1380.38 3562.04,1378.37 C3559.11,1376.37 3552.61,1373.03 3549.12,1371.73 C3543.55,1369.68 3530.99,1367.76 3524.32,1367.67 C3517.72,1367.60 3502.28,1369.18 3495.15,1371.66 C3491.31,1373.02 3483.52,1376.76 3479.58,1379.14 C3471.46,1384.09 3459.67,1394.14 3453.90,1400.03 C3449.67,1404.37 3439.16,1416.59 3434.17,1422.84 C3424.17,1436.03 3404.18,1466.62 3395.28,1481.09 C3391.24,1487.98 3383.57,1501.42 3379.94,1507.96 C3375.06,1517.21 3367.55,1533.69 3365.30,1539.34 C3362.02,1547.64 3357.36,1562.56 3355.91,1569.45 C3355.00,1573.81 3352.50,1590.16 3351.71,1597.27 C3351.10,1604.48 3350.44,1616.02 3350.71,1627.13 C3351.10,1635.02 3352.43,1651.15 3353.38,1659.39 C3354.77,1670.02 3357.82,1683.49 3360.47,1690.30 C3361.81,1693.69 3364.93,1700.00 3366.70,1702.92 C3369.01,1706.65 3372.39,1710.81 3375.68,1713.90 C3378.42,1716.44 3384.46,1720.93 3387.77,1722.87 C3394.48,1726.77 3407.46,1731.18 3418.29,1733.88 C3426.37,1735.82 3444.51,1738.99 3450.50,1739.50 C3456.20,1739.98 3473.02,1739.94 3481.90,1739.43 C3491.33,1738.74 3505.42,1736.84 3513.13,1734.92 C3520.80,1732.98 3536.61,1727.09 3542.65,1723.87 C3549.75,1720.02 3561.35,1712.63 3567.45,1708.07 C3573.57,1703.48 3585.56,1692.99 3591.49,1687.46 C3597.36,1681.73 3608.95,1669.66 3614.66,1663.32 C3623.29,1653.43 3643.04,1626.76 3654.67,1609.51 C3663.68,1595.46 3686.06,1560.24 3687.59,1557.68 C3696.81,1541.65 3709.00,1519.08 3716.41,1503.68 C3721.12,1493.44 3738.05,1452.96 3739.78,1448.19 C3742.53,1440.52 3746.44,1424.74 3747.58,1416.69 C3748.65,1408.96 3749.27,1393.10 3748.89,1385.10 C3748.49,1377.09 3746.15,1360.62 3744.88,1352.38 C3743.77,1344.32 3742.76,1329.33 3742.87,1322.39 C3743.02,1313.95 3745.41,1298.10 3748.00,1290.55 C3750.34,1283.86 3758.07,1270.18 3762.16,1264.95 C3763.98,1262.64 3768.71,1257.52 3771.54,1255.34 C3774.57,1253.03 3781.01,1249.44 3784.45,1248.13 C3787.76,1246.91 3795.23,1245.26 3798.95,1244.86 C3802.68,1244.48 3810.87,1244.53 3814.23,1244.96 C3819.70,1245.68 3835.25,1250.31 3841.66,1253.13 C3845.44,1254.83 3851.28,1259.17 3853.75,1262.11 C3856.20,1265.08 3859.92,1272.28 3861.32,1276.77 C3863.01,1282.33 3864.61,1297.44 3864.41,1306.00 C3864.22,1313.47 3861.86,1334.76 3862.14,1342.54 C3862.32,1346.68 3863.40,1354.19 3864.31,1357.57 C3865.24,1360.93 3867.74,1366.69 3869.50,1369.50 C3871.73,1373.00 3876.43,1378.02 3879.46,1380.15 C3882.51,1382.25 3889.69,1385.39 3893.81,1386.43 C3897.39,1387.31 3908.59,1388.65 3911.61,1389.17 C3915.89,1389.93 3923.66,1391.97 3927.16,1393.26 C3930.63,1394.56 3937.25,1397.91 3939.50,1399.50 C3942.41,1401.59 3947.55,1407.00 3949.51,1410.03 C3951.45,1413.08 3954.26,1420.00 3955.11,1423.81 C3956.62,1430.81 3957.56,1448.00 3956.90,1456.30 C3956.32,1463.42 3953.60,1478.00 3951.56,1485.36 C3949.80,1491.71 3943.93,1508.08 3940.89,1515.83 C3934.36,1531.52 3920.87,1558.90 3913.93,1572.09 C3910.28,1578.79 3903.07,1592.21 3899.91,1599.60 C3896.82,1606.88 3891.61,1622.34 3889.50,1630.50 C3887.45,1638.50 3884.42,1655.31 3883.43,1664.16 C3882.57,1671.87 3881.49,1692.65 3881.89,1700.18 C3882.35,1708.32 3885.28,1721.28 3887.76,1726.11 C3889.27,1728.99 3892.54,1732.95 3895.23,1734.76 C3897.85,1736.48 3904.03,1738.38 3907.58,1738.56 C3911.18,1738.70 3918.83,1737.51 3923.74,1736.08 C3932.51,1733.47 3948.03,1726.42 3955.08,1721.84 C3960.88,1718.04 3972.57,1707.18 3977.41,1701.33 C3982.10,1695.62 3990.56,1682.16 3994.64,1675.25 C4004.17,1658.45 4016.07,1633.42 4021.99,1620.03 C4033.85,1590.75 4057.67,1531.14 4069.63,1500.80 C4081.13,1471.66 4103.81,1413.34 4114.99,1384.17 C4117.21,1378.27 4122.16,1365.11 4124.89,1357.84 C4129.68,1345.15 4133.42,1336.98 4138.13,1331.79 C4140.59,1329.17 4147.17,1325.45 4151.21,1324.34 C4153.22,1323.82 4158.04,1323.10 4159.86,1323.08 C4161.91,1323.10 4165.34,1324.04 4166.70,1324.95 C4169.24,1326.76 4170.72,1331.20 4171.00,1334.77 C4171.18,1339.45 4169.24,1352.00 4167.13,1359.81 C4162.24,1376.61 4150.93,1412.08 4145.42,1428.89 C4139.94,1444.98 4128.55,1477.86 4122.66,1494.65 C4112.05,1523.25 4096.24,1564.96 4093.39,1575.20 C4089.73,1589.32 4082.82,1622.43 4079.60,1638.46 C4076.78,1653.26 4074.66,1666.55 4074.08,1674.92 C4073.51,1683.24 4074.19,1697.96 4075.42,1704.35 C4076.32,1708.81 4078.01,1713.61 4080.18,1717.25 C4082.07,1720.34 4086.77,1725.50 4089.58,1727.55 C4092.42,1729.57 4099.04,1732.59 4102.79,1733.56 C4106.51,1734.50 4114.68,1735.37 4118.62,1735.26 C4122.57,1735.12 4130.38,1733.78 4134.24,1732.57 C4142.64,1729.88 4150.77,1724.68 4156.14,1720.09 C4162.36,1714.61 4176.99,1699.04 4184.32,1690.06 C4190.25,1682.54 4208.94,1656.16 4215.34,1645.87 C4219.56,1638.80 4228.39,1623.11 4232.88,1614.93 C4242.28,1596.82 4262.35,1555.28 4273.01,1531.87 C4279.97,1515.98 4292.72,1486.38 4298.51,1472.67 C4310.72,1442.66 4335.97,1379.17 4349.01,1345.70 C4362.88,1308.75 4390.14,1236.04 4403.52,1200.28 C4415.12,1170.33 4436.50,1116.27 4446.30,1092.15 C4450.53,1082.28 4460.43,1059.57 4460.50,1059.50 C4461.44,1058.59 4465.58,1056.82 4467.48,1056.49 C4469.44,1056.20 4473.72,1056.43 4476.06,1056.96 C4478.58,1057.58 4482.86,1059.36 4484.46,1060.49 C4485.98,1061.63 4487.97,1064.44 4488.33,1066.01 C4488.86,1068.60 4486.72,1075.75 4486.34,1077.06 C4483.63,1085.84 4473.14,1115.38 4467.12,1131.04 C4459.89,1148.85 4441.46,1193.20 4436.38,1206.24 C4433.00,1215.50 4426.78,1234.66 4425.01,1241.13 C4422.90,1249.12 4420.10,1263.68 4419.41,1270.24 C4418.73,1276.79 4418.81,1288.45 4419.56,1293.57 C4419.94,1296.07 4421.48,1302.64 4422.54,1305.51 C4423.78,1308.80 4427.08,1314.55 4429.13,1317.02 C4431.21,1319.47 4436.17,1323.56 4439.06,1325.19 C4441.97,1326.81 4448.60,1329.22 4452.33,1330.02 C4456.07,1330.80 4464.37,1331.54 4468.93,1331.51 C4472.68,1331.46 4484.38,1330.52 4488.19,1330.45 C4492.89,1330.39 4501.75,1331.01 4505.91,1331.70 C4510.06,1332.41 4517.82,1334.58 4521.43,1336.05 C4525.02,1337.53 4531.67,1341.26 4534.72,1343.50 C4537.76,1345.76 4543.30,1351.04 4545.79,1354.06 C4549.89,1359.05 4556.24,1370.32 4558.56,1376.01 C4560.87,1381.73 4564.51,1394.58 4565.83,1401.71 C4567.15,1408.86 4568.69,1423.54 4569.13,1433.13 C4569.34,1440.05 4568.99,1460.45 4568.45,1470.25 C4567.73,1479.89 4566.10,1498.75 4565.19,1507.96 C4562.56,1529.03 4557.59,1558.26 4554.17,1573.01 C4552.38,1580.17 4546.56,1600.35 4544.15,1607.11 C4540.35,1617.65 4531.60,1636.07 4526.64,1643.94 C4524.15,1647.86 4518.86,1655.08 4516.11,1658.29 C4514.36,1660.33 4507.75,1667.35 4505.33,1670.29 C4500.69,1676.00 4494.90,1686.53 4493.75,1691.35 C4493.20,1693.75 4492.97,1698.34 4493.29,1700.53 C4493.63,1702.72 4495.19,1706.90 4496.43,1708.81 C4497.73,1710.75 4501.33,1714.37 4503.63,1716.05 C4508.29,1719.41 4521.69,1725.05 4530.45,1727.36 C4535.30,1728.62 4544.43,1730.43 4549.11,1730.98 C4553.76,1731.50 4562.87,1731.74 4567.33,1731.46 C4571.79,1731.16 4580.52,1729.75 4584.78,1728.65 C4589.05,1727.52 4597.38,1724.47 4601.45,1722.54 C4607.31,1719.74 4619.59,1711.16 4625.01,1706.47 C4630.42,1701.76 4640.88,1690.76 4645.94,1684.48 C4650.98,1678.18 4659.06,1666.43 4665.40,1656.20 C4674.39,1641.09 4690.46,1611.84 4697.54,1597.71 C4700.85,1590.76 4707.54,1575.75 4711.08,1567.60 C4714.50,1559.18 4720.58,1542.74 4723.25,1534.73 C4727.01,1522.49 4735.36,1489.46 4739.96,1475.67 C4742.40,1468.92 4747.67,1455.83 4750.50,1449.50 C4754.47,1441.04 4761.80,1427.75 4766.17,1421.05 C4770.55,1414.37 4778.47,1404.12 4785.46,1396.00 C4790.62,1390.22 4801.02,1379.18 4806.27,1373.91 C4811.54,1368.82 4820.23,1360.80 4829.08,1353.65 C4836.85,1347.71 4848.74,1339.42 4855.47,1335.21 C4863.00,1330.58 4875.97,1324.62 4882.94,1322.62 C4886.42,1321.64 4893.13,1320.30 4896.96,1319.83 C4903.37,1319.08 4919.69,1320.91 4927.53,1323.12 C4935.21,1325.32 4951.01,1332.41 4958.38,1336.38 C4965.46,1340.22 4979.23,1349.23 4983.64,1353.28 C4989.87,1359.05 4999.34,1370.77 5002.80,1377.00 C5006.26,1383.29 5010.80,1397.33 5012.01,1405.46 C5012.83,1411.18 5012.17,1426.52 5011.13,1433.95 C5010.07,1441.38 5006.40,1457.61 5003.90,1465.11 C5001.32,1472.81 4994.51,1487.75 4990.50,1494.50 C4987.18,1500.06 4978.46,1512.21 4973.74,1517.84 C4969.03,1523.44 4957.51,1535.32 4952.46,1539.32 C4946.25,1544.18 4931.51,1552.45 4922.98,1555.84 C4914.90,1559.03 4898.00,1563.67 4891.37,1565.05 C4883.67,1566.59 4867.11,1568.98 4858.41,1569.92 C4849.41,1570.67 4826.08,1571.82 4821.22,1572.21 C4812.21,1572.94 4796.27,1575.64 4789.34,1577.61 C4782.43,1579.60 4770.41,1584.94 4765.90,1588.02 C4762.34,1590.49 4756.84,1595.70 4754.60,1598.72 C4752.38,1601.75 4749.11,1608.51 4748.05,1612.24 C4745.99,1619.77 4746.38,1631.71 4747.52,1646.06 C4748.28,1654.20 4750.01,1669.27 4750.99,1676.19 C4751.86,1682.25 4756.63,1699.07 4759.06,1704.96 C4760.49,1708.37 4763.02,1713.09 4765.06,1715.31 C4767.28,1717.65 4773.48,1721.98 4777.46,1723.97 C4785.91,1728.12 4798.65,1731.37 4805.94,1732.95 C4812.41,1734.17 4826.52,1736.35 4834.18,1737.30 C4842.22,1738.17 4863.26,1739.92 4868.44,1740.09 C4877.30,1740.36 4894.33,1739.49 4902.50,1738.34 C4910.66,1737.18 4926.24,1733.44 4933.78,1730.84 C4940.93,1728.36 4955.63,1721.45 4962.46,1717.38 C4969.29,1713.31 4982.26,1703.78 4988.41,1698.33 C4994.39,1693.00 5005.98,1680.59 5011.61,1674.46 C5022.33,1662.29 5042.91,1636.26 5050.30,1625.38 C5055.63,1617.19 5065.34,1601.04 5069.54,1593.11 C5074.14,1584.10 5081.00,1568.41 5083.66,1563.10 C5086.92,1556.63 5093.29,1546.48 5096.41,1542.81 C5098.99,1539.91 5102.18,1537.45 5105.17,1537.11 C5106.69,1536.97 5109.95,1537.53 5111.66,1538.22 C5115.27,1539.77 5121.51,1545.18 5123.29,1548.42 C5124.11,1549.98 5125.49,1554.28 5125.50,1555.50 Z" fill="none" stroke="rgb(0, 0, 0)" stroke-width="24.80" stroke-opacity="1.00" stroke-linejoin="round"/>
<path d="M4211.07,1247.30 C4207.20,1248.38 4199.74,1249.56 4195.32,1249.79 C4190.30,1250.02 4180.86,1249.54 4177.55,1248.42 C4175.84,1247.81 4173.09,1246.09 4172.07,1244.98 C4170.23,1242.90 4169.04,1237.10 4169.37,1234.04 C4169.74,1231.02 4172.07,1223.90 4174.05,1219.79 C4176.07,1215.63 4181.70,1206.31 4184.43,1202.64 C4187.19,1198.98 4192.61,1193.61 4195.26,1191.89 C4197.94,1190.21 4203.83,1188.65 4206.70,1189.19 C4209.75,1189.84 4215.63,1194.09 4218.43,1197.67 C4220.85,1200.82 4225.87,1209.23 4227.43,1212.70 C4228.93,1216.11 4230.83,1223.21 4231.01,1226.63 C4231.08,1228.51 4230.44,1232.22 4229.79,1233.87 C4228.47,1236.98 4222.90,1242.32 4219.30,1244.22 C4217.37,1245.21 4213.98,1246.45 4211.07,1247.30 Z" fill="none" stroke="rgb(0, 0, 0)" stroke-width="24.80" stroke-opacity="1.00" stroke-linejoin="round"/>
<path d="M3791.50,1290.50 C3793.03,1288.51 3795.72,1285.94 3797.46,1284.92 C3799.15,1283.98 3802.86,1282.93 3804.88,1282.83 C3806.93,1282.76 3810.96,1283.40 3812.61,1284.06 C3814.23,1284.76 3816.92,1286.92 3817.86,1288.28 C3819.54,1290.85 3820.93,1297.00 3820.96,1300.27 C3820.95,1303.74 3819.72,1311.88 3818.49,1316.69 C3817.32,1321.16 3814.56,1328.76 3812.95,1331.91 C3811.27,1335.13 3806.16,1341.87 3803.08,1343.91 C3801.32,1345.04 3797.52,1346.42 3795.54,1346.66 C3793.52,1346.85 3790.15,1346.20 3788.74,1345.32 C3786.29,1343.70 3783.58,1337.22 3783.06,1333.85 C3782.60,1330.59 3782.65,1322.47 3783.16,1317.59 C3783.73,1312.31 3785.55,1303.43 3786.82,1299.72 C3788.06,1296.23 3790.59,1291.72 3791.50,1290.50 Z" fill="none" stroke="rgb(0, 0, 0)" stroke-width="24.80" stroke-opacity="1.00" stroke-linejoin="round"/>
<path d="M1691.50,1370.50 C1695.98,1367.86 1701.65,1365.03 1705.04,1363.73 C1708.44,1362.45 1715.26,1360.68 1718.68,1360.18 C1722.10,1359.71 1728.96,1359.54 1732.40,1359.85 C1735.83,1360.18 1743.17,1361.72 1746.20,1362.75 C1749.56,1363.94 1755.74,1367.52 1758.52,1369.91 C1761.28,1372.32 1766.21,1378.34 1768.38,1381.95 C1770.53,1385.58 1774.23,1394.04 1775.78,1398.87 C1777.86,1405.45 1781.54,1424.24 1782.39,1431.20 C1783.03,1436.86 1784.12,1453.69 1784.34,1461.86 C1784.39,1470.36 1783.94,1488.38 1783.45,1497.90 C1782.78,1507.75 1780.83,1528.62 1779.71,1539.32 C1778.34,1550.03 1774.57,1572.66 1773.25,1578.48 C1771.31,1587.01 1766.78,1601.64 1764.20,1607.74 C1761.60,1613.80 1755.78,1623.48 1752.54,1627.10 C1749.30,1630.68 1741.39,1635.93 1737.11,1637.10 C1734.74,1637.73 1729.79,1638.09 1727.21,1637.82 C1724.62,1637.54 1719.22,1636.08 1716.40,1634.91 C1710.77,1632.52 1698.61,1624.14 1692.08,1618.16 C1685.52,1612.10 1671.74,1596.66 1664.93,1587.95 C1658.55,1579.76 1647.67,1563.65 1643.16,1555.72 C1638.67,1547.80 1631.56,1532.20 1628.94,1524.53 C1626.32,1516.79 1622.67,1500.12 1621.94,1492.75 C1621.15,1484.31 1622.13,1467.87 1623.91,1459.87 C1625.73,1451.88 1631.94,1436.33 1636.33,1428.81 C1639.96,1422.62 1650.90,1407.34 1655.89,1401.34 C1660.88,1395.37 1670.97,1385.20 1676.07,1381.01 C1681.17,1376.84 1688.08,1372.44 1691.50,1370.50 Z" fill="none" stroke="rgb(0, 0, 0)" stroke-width="24.80" stroke-opacity="1.00" stroke-linejoin="round"/>
<path d="M2085.15,1394.17 C2092.17,1387.37 2106.14,1377.19 2113.51,1373.50 C2117.20,1371.68 2124.72,1368.76 2128.56,1367.66 C2132.39,1366.59 2140.20,1365.17 2144.18,1364.82 C2152.14,1364.17 2168.55,1365.82 2177.07,1368.10 C2185.21,1370.33 2199.09,1376.77 2204.83,1381.00 C2207.68,1383.13 2212.80,1387.88 2215.06,1390.51 C2217.30,1393.14 2221.20,1398.91 2222.85,1402.05 C2226.12,1408.34 2229.94,1421.75 2230.83,1428.65 C2231.54,1434.25 2231.80,1446.38 2231.36,1452.91 C2230.91,1459.45 2228.99,1472.55 2227.25,1480.93 C2225.91,1486.96 2221.12,1504.41 2218.50,1512.71 C2212.68,1529.73 2197.40,1566.22 2189.71,1583.24 C2182.05,1599.29 2165.24,1631.30 2159.15,1641.62 C2155.35,1647.83 2147.76,1659.51 2143.97,1664.99 C2136.85,1674.96 2123.48,1691.00 2116.14,1697.91 C2112.47,1701.35 2105.17,1707.23 2101.54,1709.69 C2097.92,1712.12 2090.71,1716.00 2087.12,1717.45 C2082.51,1719.28 2066.05,1723.10 2059.58,1724.08 C2053.11,1725.05 2041.04,1725.80 2035.44,1725.59 C2029.04,1725.33 2016.56,1722.95 2010.40,1720.37 C2007.36,1719.08 2001.79,1715.90 1999.26,1714.02 C1996.81,1712.16 1991.95,1707.46 1990.28,1705.16 C1988.40,1702.52 1985.40,1695.87 1984.32,1691.95 C1983.26,1687.98 1981.97,1678.81 1981.73,1673.60 C1981.21,1660.73 1983.37,1647.98 1984.44,1642.02 C1986.96,1629.41 1993.58,1601.38 1997.68,1585.96 C2002.55,1569.13 2013.34,1533.64 2019.25,1514.98 C2022.47,1505.58 2029.11,1487.69 2032.53,1479.20 C2036.01,1471.01 2043.18,1455.54 2046.86,1448.26 C2050.61,1441.28 2058.29,1428.16 2062.26,1422.16 C2070.22,1410.33 2082.07,1397.17 2085.15,1394.17 Z" fill="none" stroke="rgb(0, 0, 0)" stroke-width="24.80" stroke-opacity="1.00" stroke-linejoin="round"/>
<path d="M4441.50,1370.50 C4447.06,1369.25 4464.07,1368.48 4472.43,1369.11 C4476.54,1369.43 4485.91,1370.65 4489.51,1371.52 C4493.57,1372.52 4501.00,1375.51 4504.33,1377.49 C4507.64,1379.48 4513.49,1384.44 4516.05,1387.40 C4518.47,1390.24 4521.81,1396.18 4522.98,1398.79 C4525.62,1404.75 4529.12,1418.92 4529.99,1427.12 C4530.65,1433.62 4530.87,1453.35 4530.89,1462.11 C4530.71,1470.46 4530.20,1486.84 4529.76,1494.66 C4529.49,1499.10 4527.21,1517.68 4526.09,1524.95 C4524.85,1531.99 4521.40,1548.21 4520.34,1551.88 C4518.40,1558.56 4512.47,1573.38 4508.50,1581.50 C4504.06,1590.55 4498.00,1601.11 4492.07,1610.63 C4483.72,1623.41 4464.28,1650.91 4453.19,1665.63 C4447.45,1672.95 4436.23,1686.36 4430.74,1692.46 C4423.59,1699.99 4414.72,1708.51 4409.59,1712.78 C4403.30,1718.01 4390.80,1726.15 4382.15,1729.34 C4377.96,1730.85 4369.85,1732.54 4365.94,1732.72 C4361.95,1732.87 4355.60,1731.98 4350.89,1730.80 C4342.85,1728.70 4330.77,1724.65 4325.04,1722.12 C4318.69,1719.22 4308.20,1712.06 4303.67,1707.81 C4301.45,1705.72 4296.88,1700.61 4295.65,1698.79 C4293.98,1696.27 4291.58,1689.54 4290.87,1685.40 C4289.49,1676.94 4290.37,1660.02 4291.83,1650.56 C4293.60,1640.37 4301.10,1607.44 4305.60,1590.43 C4311.00,1571.84 4321.64,1536.27 4326.87,1519.30 C4331.55,1504.99 4342.76,1471.79 4348.81,1457.37 C4353.36,1446.77 4360.17,1434.44 4363.94,1429.88 C4367.37,1425.82 4375.04,1417.27 4379.28,1412.79 C4381.60,1410.36 4394.63,1398.77 4400.18,1393.93 C4409.58,1386.05 4418.97,1379.34 4426.23,1375.95 C4429.86,1374.27 4438.55,1371.18 4441.50,1370.50 Z" fill="none" stroke="rgb(0, 0, 0)" stroke-width="24.80" stroke-opacity="1.00" stroke-linejoin="round"/>
<path d="M4881.50,1370.50 C4889.32,1367.98 4906.04,1365.46 4914.70,1365.50 C4919.03,1365.54 4928.09,1366.28 4932.39,1366.94 C4937.02,1367.67 4944.86,1369.85 4948.33,1371.38 C4951.77,1372.93 4957.63,1376.86 4960.04,1379.24 C4962.42,1381.64 4966.25,1387.41 4967.50,1390.50 C4968.42,1392.81 4969.83,1399.31 4970.13,1402.62 C4970.68,1409.25 4968.87,1424.77 4966.51,1433.65 C4964.69,1440.36 4957.13,1461.11 4953.78,1469.40 C4949.98,1478.28 4944.08,1490.17 4940.22,1496.74 C4938.22,1500.05 4932.92,1507.42 4930.02,1510.65 C4927.19,1513.75 4921.54,1518.40 4918.72,1519.94 C4915.52,1521.66 4899.99,1525.28 4892.07,1526.92 C4878.83,1529.48 4830.26,1536.56 4823.84,1537.30 C4819.18,1537.82 4810.63,1538.11 4806.86,1537.86 C4803.11,1537.60 4796.55,1536.30 4793.74,1535.26 C4790.96,1534.21 4786.11,1531.18 4784.50,1529.50 C4782.82,1527.70 4780.16,1522.71 4779.41,1519.91 C4778.69,1517.09 4778.27,1510.65 4778.59,1507.03 C4779.26,1499.89 4784.69,1482.31 4788.25,1473.39 C4791.68,1464.83 4800.06,1447.88 4804.50,1440.50 C4808.29,1434.24 4818.11,1420.51 4823.26,1414.28 C4828.41,1408.08 4840.37,1395.55 4845.70,1390.98 C4851.72,1385.87 4864.47,1377.65 4871.20,1374.55 C4874.47,1373.06 4879.93,1371.01 4881.50,1370.50 Z" fill="none" stroke="rgb(0, 0, 0)" stroke-width="24.80" stroke-opacity="1.00" stroke-linejoin="round"/>
<path d="M1571.16,1552.49 C1573.25,1552.04 1577.30,1552.14 1579.59,1552.70 C1584.17,1553.87 1594.76,1560.31 1600.77,1565.58 C1606.82,1570.93 1619.19,1584.47 1626.75,1593.77 C1632.91,1601.49 1643.27,1616.47 1647.48,1623.74 C1651.65,1631.00 1658.82,1646.78 1661.29,1654.59 C1662.76,1659.30 1664.72,1668.46 1665.20,1672.91 C1665.66,1677.34 1665.59,1685.95 1665.06,1690.11 C1664.51,1694.20 1662.43,1702.25 1661.07,1705.76 C1659.72,1709.19 1656.46,1714.89 1654.55,1717.18 C1652.62,1719.43 1648.20,1722.80 1645.71,1723.91 C1643.70,1724.79 1637.49,1726.15 1635.36,1726.28 C1632.72,1726.41 1627.00,1725.78 1623.93,1725.00 C1617.77,1723.41 1603.35,1716.38 1595.87,1711.31 C1592.08,1708.72 1585.09,1702.99 1581.92,1699.87 C1578.77,1696.73 1573.09,1689.94 1570.58,1686.28 C1565.50,1678.84 1558.27,1662.42 1555.99,1654.52 C1553.66,1646.38 1551.02,1628.62 1550.69,1618.99 C1550.39,1609.35 1551.81,1588.16 1553.39,1579.92 C1554.21,1575.78 1556.27,1568.72 1557.52,1565.79 C1558.78,1562.90 1561.74,1558.33 1563.44,1556.65 C1565.15,1555.00 1568.81,1553.02 1571.16,1552.49 Z" fill="none" stroke="rgb(0, 0, 0)" stroke-width="24.80" stroke-opacity="1.00" stroke-linejoin="round"/>
</g>
</svg>
